<svg t="1584759021294" class="icon" viewBox="0 0 1451 1024" version="1.1" xmlns="http://www.w3.org/2000/svg" p-id="1712" width="128" height="128"><path d="M330.837333 731.278222 207.758222 648.533333 145.635556 678.513778 214.584889 823.836444 365.169778 736.881778Z" p-id="1713"></path><path d="M318.236444 836.380444 214.641778 850.659556 297.045333 940.117333 326.286222 922.595556Z" p-id="1714"></path><path d="M45.710222 724.679111 0 735.032889 190.321778 837.717333 289.564444 795.932444Z" p-id="1715"></path><path d="M1018.709333 589.596444 781.681778 693.617778 979.569778 967.281778 1030.968889 948.906667Z" p-id="1716"></path><path d="M1407.544889 336.270222c-76.885333-28.245333-188.586667 22.670222-188.586667 22.670222C285.866667 750.705778 168.874667 834.190222 168.874667 834.190222c-41.130667 27.505778 4.352 27.534222 4.352 27.534222l224.341333-25.685333c126.691556-11.975111 216.376889-58.282667 216.376889-58.282667 76.401778-27.676444 728.860444-313.6 728.860444-313.6 34.986667-18.830222 69.944889-51.057778 69.944889-51.057778 23.722667-17.322667 34.901333-52.366222 34.901333-52.366222C1450.439111 343.324444 1407.544889 336.270222 1407.544889 336.270222z" p-id="1717"></path><path d="M1315.84 429.852444 407.921778 822.812444c-14.819556 6.4-10.353778 13.226667-10.353778 13.226667 3.811556-0.398222 7.623111-0.768 11.377778-1.194667 40.732444-4.551111 77.340444-12.544 107.946667-21.134222 60.046222-16.867556 97.052444-35.953778 97.052444-35.953778 76.401778-27.676444 728.860444-313.6 728.860444-313.6 34.986667-18.830222 69.944889-51.057778 69.944889-51.057778C1400.632889 400.839111 1315.84 429.852444 1315.84 429.852444z" p-id="1718"></path><path d="M164.039111 292.977778 123.278222 272.867556 104.704 278.755556 129.080889 318.492444 673.678222 653.568 919.978667 546.588444Z" p-id="1719"></path></svg>
